<svg width="25" height="25" viewBox="0 0 25 25" fill="none" xmlns="http://www.w3.org/2000/svg">
<path fill-rule="evenodd" clip-rule="evenodd" d="M0 12.4997C0 5.62138 5.60534 0.0263672 12.4964 0.0263672L12.5036 0.0265742C19.3947 0.0265742 25 5.62159 25 12.4999C25 19.378 19.3947 24.9733 12.5036 24.9733C10.1328 24.9733 7.9217 24.3163 6.03144 23.1688C5.77283 23.0118 5.45974 22.9663 5.17152 23.0582L2.70328 23.8454C1.92281 24.0943 1.19056 23.3506 1.45153 22.5741L2.21544 20.3011C2.31879 19.9936 2.26426 19.6565 2.08408 19.3868C0.766135 17.4135 0 15.0427 0 12.4997ZM8.21266 5.74632C8.57985 5.76122 8.76355 5.78316 9.00593 6.36242C9.08422 6.55103 9.19177 6.81147 9.30964 7.09689C9.64533 7.90975 10.0647 8.92519 10.1299 9.0609C10.218 9.24426 10.3063 9.49364 10.1813 9.73557C10.072 9.96756 9.97534 10.079 9.81451 10.2645C9.80245 10.2784 9.79003 10.2928 9.77722 10.3076C9.69861 10.3986 9.62135 10.4803 9.5443 10.5617C9.44131 10.6705 9.33867 10.7789 9.23359 10.909L9.22475 10.9194C9.05828 11.1143 8.87736 11.3262 9.08679 11.6863C9.29973 12.0456 10.0343 13.2408 11.1143 14.2012C12.3961 15.3391 13.4546 15.7663 13.9321 15.959C13.9746 15.9762 14.0126 15.9915 14.0457 16.0053C14.3467 16.13 14.7069 16.1007 14.9273 15.866C15.1662 15.6089 15.4533 15.2068 15.7521 14.7884C15.8026 14.7176 15.8534 14.6464 15.9044 14.5754C16.1541 14.2234 16.4698 14.1793 16.8005 14.3039C17.1385 14.4212 18.9239 15.3012 19.2911 15.4846C19.3661 15.522 19.4359 15.5555 19.5002 15.5864C19.7509 15.7067 19.9188 15.7873 19.989 15.9098C20.0773 16.0638 20.0773 16.7898 19.776 17.6406C19.4748 18.491 18.2772 19.1952 17.3222 19.4005C16.6685 19.5398 15.8161 19.6499 12.9437 18.462C9.54139 17.0558 7.26084 13.7561 6.79698 13.0849C6.76005 13.0315 6.73463 12.9947 6.72108 12.9769C6.71592 12.9698 6.70979 12.9614 6.70274 12.9518C6.46935 12.6333 5.23718 10.9518 5.23718 9.21487C5.23718 7.47573 6.09783 6.60269 6.48326 6.21171C6.49438 6.20043 6.50511 6.18955 6.51541 6.17906C6.81667 5.87111 7.31614 5.73183 7.79384 5.73183C7.93356 5.73252 8.07323 5.73735 8.21266 5.74632Z" fill="#F7CC20"/>
</svg>
